<?xml version="1.0" standalone="no"?>
<!DOCTYPE svg PUBLIC "-//W3C//DTD SVG 20010904//EN"
 "http://www.w3.org/TR/2001/REC-SVG-20010904/DTD/svg10.dtd">
<svg version="1.0" xmlns="http://www.w3.org/2000/svg"
 width="700.000000pt" height="700.000000pt" viewBox="0 0 700.000000 700.000000"
 preserveAspectRatio="xMidYMid meet">
<metadata>
Created by potrace 1.11, written by Peter Selinger 2001-2013
</metadata>
<g transform="translate(0.000000,700.000000) scale(0.100000,-0.100000)"
fill="#000000" stroke="none">
<path d="M4125 6083 c-47 -24 -63 -46 -84 -115 -18 -56 -414 -1471 -447 -1593
-7 -27 -38 -140 -69 -250 -31 -110 -63 -222 -70 -250 -13 -46 -210 -750 -220
-785 -2 -8 -15 -55 -29 -105 -35 -128 -133 -481 -151 -540 -8 -27 -41 -147
-74 -265 -32 -118 -96 -345 -141 -505 -45 -159 -83 -297 -85 -305 -2 -8 -21
-79 -44 -158 -46 -160 -48 -179 -25 -228 34 -71 123 -100 194 -64 58 30 60 37
175 450 36 129 94 339 130 465 35 127 96 345 135 485 39 140 85 302 101 360
17 58 39 139 50 180 27 99 294 1057 319 1140 10 36 37 130 59 210 59 213 158
570 192 690 17 58 32 112 34 120 6 26 101 365 176 630 40 140 73 276 75 302 5
105 -109 180 -201 131z"/>
<path d="M1995 5476 c-16 -8 -70 -54 -120 -101 -215 -208 -583 -565 -635 -615
-48 -47 -287 -278 -561 -542 -215 -208 -578 -559 -620 -600 -52 -50 -66 -91
-55 -153 7 -37 17 -47 263 -285 66 -63 219 -212 342 -330 122 -118 259 -250
304 -294 45 -43 184 -177 309 -298 124 -120 253 -245 286 -276 33 -31 148
-142 256 -247 108 -104 210 -198 227 -207 60 -32 134 -10 182 54 26 34 26 107
2 145 -10 15 -86 93 -169 173 -82 80 -180 174 -216 210 -37 36 -163 157 -280
270 -117 113 -247 239 -290 280 -42 41 -182 176 -311 300 -128 124 -258 250
-289 280 -31 30 -104 101 -162 157 l-105 103 241 233 c133 128 270 262 306
296 109 105 519 502 585 566 58 57 392 380 584 565 103 100 123 127 126 178 5
101 -110 181 -200 138z"/>
<path d="M4904 5479 c-38 -11 -93 -65 -96 -93 -1 -12 -2 -30 -3 -41 -4 -43 28
-93 108 -169 45 -43 183 -176 307 -296 124 -120 254 -246 290 -280 36 -34 164
-158 285 -275 121 -117 252 -243 290 -280 39 -37 169 -163 290 -279 121 -117
232 -224 247 -238 l28 -25 -103 -100 c-56 -55 -125 -122 -153 -149 -74 -71
-544 -526 -706 -683 -75 -73 -168 -163 -205 -198 -117 -112 -523 -505 -594
-575 -73 -72 -92 -114 -80 -170 12 -50 32 -77 77 -98 45 -22 65 -24 111 -7 34
13 70 46 463 427 140 136 275 267 300 290 42 40 460 444 595 575 34 33 164
159 290 280 343 331 343 331 351 370 16 86 18 84 -302 391 -34 33 -169 163
-300 290 -131 128 -268 260 -304 294 -56 54 -407 393 -579 560 -279 270 -471
453 -488 465 -27 19 -82 26 -119 14z"/>
</g>
</svg>
