<svg version="1" xmlns="http://www.w3.org/2000/svg" width="933.333" height="933.333" viewBox="0 0 700 700"><path d="M408.7 70.4c-1.2.9-5 12.6-11.8 36.2-5.5 19.2-10.1 35.6-10.3 36.5-.3.9-1.4 4.9-2.6 8.9-1.2 4-2.3 8.1-2.5 9.2-.2 1-1.5 5.6-2.8 10.1-1.4 4.5-2.7 9.1-3 10.2-.3 1.1-2.6 9.2-5.2 18-2.5 8.8-4.7 16.4-4.9 17-.1.5-.8 3-1.5 5.5-.6 2.5-2 7.4-3.1 11-2 6.5-27.8 97.2-28.5 100-.2.8-5.6 19.7-12 42s-11.8 41.2-12 42c-.4 1.7-15.5 54.9-18.5 65-2.5 8.6-11.7 40.8-14 49-1 3.6-3.3 11.4-5 17.5-4 14-6 21.2-7 25-.5 1.6-2 7-3.4 12-3.8 13.2-4.7 12.4 22.7 19.9l8.7 2.5 2.4-2.2c1.5-1.3 3.2-5 4.5-9.2 3.2-11.1 8.1-28.5 9.6-34 .8-2.8 8.4-29.5 17-59.5s15.8-55.3 16.1-56.2c.2-1 .6-2.6.8-3.6.3-.9 1.6-5.8 3.1-10.7 1.5-5 4.8-16.7 7.5-26 2.7-9.4 9.2-32.3 14.6-51 5.3-18.7 10-35.4 10.5-37 1.2-4.4 7.3-26.1 20.5-72C434.5 121 445 83.7 445 82.1c0-3.3-3.8-5.3-17.6-9.2-15.2-4.3-16.1-4.4-18.7-2.5zM200.3 202.2c-2.1 1.8-4.3 3.7-4.9 4.3-1.6 1.5-13.2 11.8-29.4 26-19 16.8-28 24.8-29.4 26-1.9 1.8-70 61.9-73 64.5-7.3 6.3-14.6 13.8-14.6 15.1 0 2 3.3 5.5 12 13 4.1 3.5 8 6.9 8.5 7.5.6.5 4.6 4.1 9 8 4.4 3.8 8.2 7.1 8.5 7.4.7.7 40.2 35.7 51 45 4.7 4.1 8.7 7.7 9 8 .3.3 6.1 5.5 13 11.5 6.9 6.1 13 11.4 13.6 12 28.5 25.8 31.5 28 35 25.7 1.5-.9 19.3-21.1 21.1-23.9 1.1-1.6 1.2-2.7.4-4.2-.6-1-10-9.4-20.8-18.6-10.9-9.2-21.1-17.9-22.8-19.4-1.6-1.5-8.6-7.4-15.5-13.1-6.9-5.8-13-11-13.6-11.5-.6-.6-3.5-3-6.4-5.5-3-2.5-8.8-7.4-13-11-4.2-3.6-10.1-8.5-13-11-7.1-6-21.3-18-22.4-19-.4-.4.7-2.1 2.4-3.7 1.8-1.5 3.8-3.3 4.4-3.8.6-.6 6.5-5.6 13.1-11.2 10.6-8.9 37.8-31.9 44.5-37.7 1.4-1.1 5.2-4.4 8.5-7.1 3.3-2.8 6.2-5.2 6.5-5.5.3-.3 6.4-5.5 13.5-11.5 7.2-6 13.8-11.6 14.7-12.5.9-.8 5.5-4.7 10.1-8.5 8.9-7.3 10.8-9.9 9.8-12.7-.6-1.7-18.3-22.3-21.1-24.5-2.4-2-4.7-1.5-8.7 1.9zm291.3 1.1c-3.6 3.8-8.8 9.7-16.5 18.6-3.9 4.4-2.9 6.3 8.2 15.6 5.6 4.8 11.3 9.7 12.7 10.8 2.4 2.1 25.9 22 30.9 26.2 1.3 1.1 2.9 2.4 3.5 3 .6.5 4 3.5 7.6 6.5 3.5 3 7.6 6.5 9 7.7 4.4 3.8 38.2 32.4 46.3 39.1 4.2 3.6 7.7 6.9 7.7 7.3 0 .4-4.2 4.3-9.2 8.6-5.1 4.2-9.5 8-9.8 8.3-.3.3-6.1 5.3-13 11-6.9 5.8-12.7 10.7-13 11-.3.3-3.4 3-7 6s-6.7 5.7-7 6c-.3.3-3 2.5-6 5s-6 4.9-6.6 5.5c-.6.5-3.5 3-6.4 5.5-3 2.5-7 5.9-9 7.6-1.9 1.7-11.4 9.7-21 17.8-9.6 8.1-18.1 15.6-18.9 16.7-1.9 2.6-.8 5.7 3.6 10.4 2.1 2.2 6.9 7.5 10.6 11.8 9.1 10.2 8.7 10.2 20.8-.5 3.5-3.1 7.3-6.5 8.5-7.5 14.2-12.5 14.9-13 23.9-21.2 2.2-2 7.6-6.7 12-10.6 4.4-3.8 8.2-7.2 8.5-7.5.3-.3 6.1-5.4 13-11.5 16.9-14.8 18.6-16.3 24.4-21.6 2.8-2.5 10.7-9.4 17.6-15.4 6.9-6 12.7-11.2 13-11.5.3-.3 4.1-3.7 8.5-7.5 14.5-12.8 15.5-13.8 15.5-16.3 0-3-1-3.9-47.5-44.7-9.3-8.2-17.2-15.1-17.5-15.5-.3-.3-4.3-3.9-9-8s-9-8-9.6-8.5c-1.2-1.1-3.6-3.2-15.9-14-4.4-3.8-8.2-7.2-8.5-7.5-.3-.3-7.9-7-17-15s-18.1-16-20.2-17.8c-5.4-4.9-10-8.2-11.6-8.2-.8 0-3.3 2-5.6 4.3z"/></svg>