<?xml version="1.0" standalone="no"?>
<!DOCTYPE svg PUBLIC "-//W3C//DTD SVG 20010904//EN"
 "http://www.w3.org/TR/2001/REC-SVG-20010904/DTD/svg10.dtd">
<svg version="1.0" xmlns="http://www.w3.org/2000/svg"
 width="700.000000pt" height="700.000000pt" viewBox="0 0 700.000000 700.000000"
 preserveAspectRatio="xMidYMid meet">
<metadata>
Created by potrace 1.11, written by Peter Selinger 2001-2013
</metadata>
<g transform="translate(0.000000,700.000000) scale(0.100000,-0.100000)"
fill="#000000" stroke="none">
<path d="M4083 6290 c-15 -18 -178 -567 -318 -1075 -7 -27 -43 -153 -80 -280
-36 -126 -68 -237 -70 -245 -4 -19 -259 -914 -285 -1000 -10 -36 -67 -234
-125 -440 -59 -206 -111 -388 -116 -405 -5 -16 -72 -253 -150 -525 -77 -272
-149 -525 -159 -562 -11 -38 -29 -98 -40 -135 -10 -38 -29 -102 -40 -143 -12
-41 -28 -100 -37 -130 -8 -30 -19 -68 -23 -85 -5 -16 -20 -70 -34 -120 -38
-132 -47 -124 226 -199 85 -24 88 -24 110 -6 14 10 31 42 41 77 9 32 84 297
167 588 83 292 159 559 170 595 31 104 91 314 95 330 1 8 53 191 115 405 61
215 113 397 115 405 2 8 32 112 66 230 34 118 65 229 69 245 14 50 86 302 125
435 20 69 38 132 40 140 2 8 116 410 254 893 138 483 251 886 251 895 -1 36
-29 51 -170 91 -79 23 -152 41 -162 41 -10 0 -26 -9 -35 -20z"/>
<path d="M2034 5002 c-12 -7 -40 -32 -249 -216 -55 -49 -120 -106 -145 -128
-25 -22 -58 -52 -75 -66 -26 -24 -101 -90 -234 -207 -18 -16 -39 -34 -45 -40
-6 -5 -49 -44 -96 -85 -47 -41 -87 -77 -90 -80 -3 -3 -77 -68 -165 -145 -87
-77 -166 -147 -175 -155 -21 -20 -142 -126 -206 -181 -52 -44 -71 -79 -57
-103 4 -7 53 -53 108 -101 55 -48 118 -104 140 -124 22 -20 76 -68 120 -106
44 -39 82 -72 85 -75 3 -3 43 -39 90 -80 47 -41 90 -79 96 -85 6 -5 42 -37 80
-70 37 -33 75 -67 84 -75 9 -8 50 -44 91 -79 41 -36 81 -72 90 -80 9 -9 31
-29 50 -45 31 -27 135 -119 229 -202 235 -210 277 -244 298 -244 24 0 36 11
131 120 31 35 64 72 73 81 9 10 24 29 33 43 16 23 16 28 2 49 -8 13 -68 68
-133 122 -66 55 -132 112 -149 126 -16 15 -77 66 -135 115 -58 49 -166 141
-240 204 -74 63 -162 137 -195 165 -33 27 -65 54 -71 60 -15 14 -304 259 -333
282 l-24 20 39 35 c21 20 149 129 284 243 135 114 268 226 295 249 28 24 102
87 165 141 63 53 126 107 140 118 14 12 52 44 85 72 33 27 71 60 85 72 13 13
59 51 101 85 79 65 105 99 92 123 -10 18 -194 227 -213 242 -17 14 -40 16 -56
5z"/>
<path d="M4921 4972 c-45 -46 -173 -191 -183 -206 -19 -29 -6 -56 50 -103 31
-26 59 -50 62 -53 3 -3 30 -25 60 -50 30 -25 57 -47 60 -50 3 -3 64 -55 135
-115 72 -60 132 -112 135 -115 3 -3 45 -39 95 -80 49 -41 106 -89 125 -107 19
-17 69 -59 110 -94 110 -91 324 -273 330 -279 3 -3 29 -25 58 -49 28 -23 52
-46 52 -51 0 -4 -55 -54 -122 -111 -68 -57 -125 -106 -128 -109 -3 -3 -61 -53
-130 -110 -69 -58 -127 -107 -130 -110 -3 -3 -63 -55 -135 -115 -71 -60 -141
-120 -155 -131 -79 -69 -191 -164 -229 -194 -23 -19 -53 -44 -65 -55 -12 -11
-49 -42 -81 -70 -123 -104 -126 -111 -67 -177 170 -193 185 -208 206 -208 24
1 30 5 117 82 35 31 73 65 85 75 142 125 149 130 239 212 22 20 76 67 120 106
44 38 85 74 91 80 6 5 44 39 85 75 40 36 98 88 129 115 31 28 74 65 96 84 21
19 59 53 84 75 25 23 76 68 114 101 38 33 74 65 80 70 6 6 49 44 96 85 47 41
90 80 96 85 6 6 39 34 73 64 75 66 79 91 24 141 -71 62 -176 155 -187 165 -6
6 -44 39 -85 75 -41 36 -82 72 -91 80 -9 8 -47 42 -85 75 -38 33 -79 69 -91
80 -12 11 -35 31 -50 45 -61 53 -391 344 -424 374 -19 17 -89 78 -155 136 -66
58 -129 114 -141 125 -11 11 -49 45 -84 75 -35 30 -68 59 -74 66 -16 15 -52
34 -67 34 -6 0 -28 -17 -48 -38z"/>
</g>
</svg>
