<?xml version="1.0" standalone="no"?>
<!DOCTYPE svg PUBLIC "-//W3C//DTD SVG 20010904//EN"
 "http://www.w3.org/TR/2001/REC-SVG-20010904/DTD/svg10.dtd">
<svg version="1.0" xmlns="http://www.w3.org/2000/svg"
 width="700.000000pt" height="700.000000pt" viewBox="0 0 700.000000 700.000000"
 preserveAspectRatio="xMidYMid meet">
<metadata>
Created by potrace 1.14, written by Peter Selinger 2001-2017
</metadata>
<g transform="translate(0.000000,700.000000) scale(0.100000,-0.100000)"
fill="#000000" stroke="none">
<path d="M4083 6290 c-13 -15 -187 -592 -217 -721 -3 -9 -14 -49 -26 -89 -12
-40 -30 -105 -41 -144 -26 -98 -38 -137 -114 -401 -36 -126 -68 -237 -70 -245
-2 -8 -67 -238 -145 -510 -78 -272 -143 -502 -145 -510 -2 -8 -56 -197 -120
-420 -64 -223 -122 -427 -130 -455 -7 -27 -73 -257 -145 -510 -124 -435 -142
-498 -190 -662 -10 -38 -29 -102 -40 -143 -12 -41 -28 -100 -37 -130 -8 -30
-19 -68 -23 -85 -5 -16 -20 -70 -34 -120 -38 -133 -46 -126 246 -205 65 -17
69 -17 91 0 13 10 30 43 40 77 39 134 428 1499 432 1513 1 8 53 191 115 405
61 215 113 397 115 405 6 24 134 472 144 505 6 17 26 86 45 155 19 69 82 292
141 495 122 427 112 390 124 435 5 19 86 304 180 633 94 329 171 606 171 615
-1 36 -29 51 -170 91 -79 23 -152 41 -162 41 -10 0 -26 -9 -35 -20z"/>
<path d="M2003 4978 c-21 -18 -43 -37 -49 -43 -19 -18 -267 -237 -508 -449
-38 -34 -74 -66 -80 -71 -6 -6 -69 -62 -141 -125 -71 -63 -146 -129 -165 -146
-45 -41 -386 -341 -424 -374 -16 -14 -42 -38 -59 -53 -17 -16 -41 -36 -53 -46
-13 -10 -26 -30 -29 -44 -8 -30 -13 -25 205 -217 84 -74 158 -140 164 -145 21
-20 353 -313 481 -425 72 -62 132 -116 135 -119 3 -3 59 -53 125 -111 66 -57
125 -109 131 -115 6 -5 39 -35 73 -65 35 -30 77 -68 94 -84 100 -89 136 -116
158 -116 18 0 50 29 128 120 123 140 125 144 111 169 -5 11 -99 95 -208 186
-108 92 -210 179 -227 194 -16 15 -86 74 -155 131 -69 58 -127 107 -130 110
-3 3 -50 44 -105 90 -126 106 -216 182 -231 195 -10 9 -146 124 -202 171 -28
23 -29 21 53 89 26 22 64 54 84 71 20 17 104 89 186 159 83 70 161 137 175
149 14 11 81 68 150 126 69 58 132 112 142 120 9 8 115 98 236 200 121 102
225 195 231 208 6 13 8 29 4 37 -10 18 -194 227 -213 242 -24 20 -47 15 -87
-19z"/>
<path d="M4916 4967 c-36 -38 -88 -97 -165 -186 -35 -40 -27 -64 37 -118 31
-26 59 -50 62 -53 3 -3 32 -28 65 -55 33 -28 73 -62 90 -76 16 -15 82 -70 145
-124 63 -53 138 -116 165 -140 47 -39 408 -345 608 -515 48 -40 87 -77 87 -81
0 -4 -42 -43 -92 -86 -51 -42 -95 -80 -98 -83 -3 -3 -61 -53 -130 -110 -69
-58 -127 -107 -130 -110 -5 -5 -166 -142 -218 -185 -14 -11 -30 -24 -36 -30
-54 -48 -109 -95 -376 -319 -96 -81 -181 -156 -189 -167 -19 -27 -8 -57 42
-110 23 -25 71 -78 106 -118 43 -48 70 -71 86 -71 17 0 84 48 125 90 4 4 87
77 189 166 18 16 43 38 55 49 12 11 55 49 96 85 40 36 94 83 119 106 25 23 91
81 146 129 55 48 132 115 170 150 39 34 133 117 210 185 77 68 174 153 215
190 41 37 98 87 125 111 28 24 65 57 83 73 50 46 44 72 -30 137 -35 29 -65 56
-68 59 -9 9 -184 164 -265 234 -44 39 -85 75 -90 80 -6 6 -44 40 -85 76 -41
35 -77 67 -80 70 -3 3 -43 39 -90 80 -47 41 -87 77 -90 80 -3 3 -39 34 -80 70
-41 35 -82 71 -91 80 -8 8 -41 38 -73 65 -32 28 -68 59 -81 70 -20 19 -137
122 -175 155 -9 8 -50 44 -90 80 -91 81 -130 110 -148 110 -8 0 -33 -20 -56
-43z"/>
</g>
</svg>
