<svg width="512" height="512" viewBox="0 0 512 512" fill="none" xmlns="http://www.w3.org/2000/svg">
  <path d="M211.54 444.125L192.328 438.662C189.869 437.97 188.486 435.431 189.178 432.969L297.299 53.7416C297.991 51.2795 300.527 49.8947 302.986 50.5871L322.197 56.0497C324.656 56.7421 326.039 59.2811 325.348 61.7431L217.226 440.893C216.535 443.355 213.922 444.817 211.54 444.125ZM153.445 347.722L167.661 331.642C169.121 330.026 168.891 327.564 167.277 326.179L74.2939 247.318L167.277 168.456C168.891 167.071 169.121 164.609 167.661 162.993L153.445 146.913C152.061 145.298 149.602 145.144 147.989 146.606L37.2544 244.471C35.487 246.01 35.487 248.702 37.2544 250.241L147.989 348.106C149.602 349.491 152.061 349.337 153.445 347.722ZM366.537 348.029L477.271 250.164C479.038 248.625 479.038 245.933 477.271 244.394L366.537 146.606C364.923 145.221 362.541 145.375 361.081 146.913L346.864 162.993C345.404 164.609 345.635 167.071 347.249 168.456L440.231 247.318L347.249 326.179C345.635 327.564 345.404 330.026 346.864 331.642L361.081 347.722C362.464 349.337 364.923 349.491 366.537 348.029Z" fill="white"/>
</svg>
