<?xml version="1.0" encoding="UTF-8"?>
<svg width="512px" height="512px" viewBox="0 0 512 512" version="1.1" xmlns="http://www.w3.org/2000/svg" xmlns:xlink="http://www.w3.org/1999/xlink">
    <!-- Generator: Sketch 48.2 (47327) - http://www.bohemiancoding.com/sketch -->
    <title>Untitled</title>
    <desc>Created with Sketch.</desc>
    <defs></defs>
    <g id="Page-1" stroke="none" stroke-width="1" fill="none" fill-rule="evenodd">
        <rect id="Rectangle" x="0" y="0" width="512" height="512"></rect>
        <g id="Icon" transform="translate(35.928821, 50.409046)" fill="#FFFFFF" fill-rule="nonzero">
            <path d="M175.610834,393.715795 L156.399497,388.253199 C153.940446,387.560757 152.557229,385.021804 153.248838,382.559788 L261.370244,3.33250141 C262.061852,0.870486154 264.597748,-0.514397426 267.0568,0.178044364 L286.268137,5.64064071 C288.727188,6.3330825 290.110404,8.87203573 289.418796,11.334051 L181.29739,390.4844 C180.605782,392.946415 177.99304,394.408237 175.610834,393.715795 Z M117.51575,297.31251 L131.73214,281.232473 C133.192201,279.616776 132.961665,277.15476 131.347913,275.769877 L38.3650406,196.908451 L131.347913,118.047025 C132.961665,116.662141 133.192201,114.200126 131.73214,112.584428 L117.51575,96.5043912 C116.132534,94.8886936 113.673483,94.7348177 112.05973,96.1966392 L1.32558227,194.061746 C-0.441860758,195.600505 -0.441860758,198.293334 1.32558227,199.832094 L112.05973,297.6972 C113.673483,299.082084 116.132534,298.928208 117.51575,297.31251 Z M330.607903,297.620262 L441.342051,199.755156 C443.109495,198.216396 443.109495,195.523567 441.342051,193.984808 L330.607903,96.1966392 C328.994151,94.8117557 326.611945,94.9656316 325.151884,96.5043912 L310.935494,112.584428 C309.475432,114.200126 309.705968,116.662141 311.319721,118.047025 L404.302593,196.908451 L311.319721,275.769877 C309.705968,277.15476 309.475432,279.616776 310.935494,281.232473 L325.151884,297.31251 C326.5351,298.928208 328.994151,299.082084 330.607903,297.620262 Z" id="Shape"></path>
        </g>
    </g>
</svg>